<svg version="1.1" width="498px" height="432px" xmlns="http://www.w3.org/2000/svg">
        <defs>
            <radialGradient gradientUnits="userSpaceOnUse" cx="63.674" cy="-263.695" r="101.283" id="gradient-0" gradientTransform="matrix(1.948614, 3.57922, -1.650787, 0.898732, -423.808868, 42.333297)">
                <stop offset="0" style="stop-color: rgb(100% 100% 100%)"></stop>
                <stop offset="1" style="stop-color: rgb(56.687% 56.687% 56.687%)"></stop>
            </radialGradient>
        </defs>
        <path d="M 239.931 -463.347 Q 250 -480.653 260.068 -463.347 L 491.644 -65.306 Q 501.712 -48 481.575 -48 L 18.424 -48 Q -1.713 -48 8.356 -65.306 Z" style="stroke: rgb(0, 0, 255); stroke-width: 8px;" transform="matrix(1, 0, 0, -1, -1, -44)"></path>
        <path d="M 250.009 66.147 L 302.008 100.812 L 302.008 121.612 L 250.009 86.947 C 250.009 86.947 213.608 111.212 213.608 111.212 C 213.608 111.212 302.008 193.256 302.008 193.256 L 302.008 355.033 L 284.676 355.033 L 284.676 279.923 L 215.343 320.367 L 215.343 355.033 L 198.008 355.033 L 198.008 262.589 L 234.409 238.323 L 198.008 214.056 L 198.008 193.256 L 250.009 227.923 L 286.408 203.656 C 286.408 203.656 198.008 121.612 198.008 121.612 C 198.008 121.612 198.008 100.812 198.008 100.812 C 198.008 100.812 250.009 66.147 250.009 66.147 Z M 284.676 225.611 L 215.343 274.145 L 215.343 299.567 L 284.676 259.123 L 284.676 225.611 Z" style="fill: url(&quot;#gradient-0&quot;); stroke-width: 0px; stroke: rgb(0, 0, 0); paint-order: stroke;" transform="matrix(1,0,0,1,-1,-44)"></path>
</svg>
