<?xml version="1.0" standalone="no"?>
<!DOCTYPE svg PUBLIC "-//W3C//DTD SVG 20010904//EN"
 "http://www.w3.org/TR/2001/REC-SVG-20010904/DTD/svg10.dtd">
<svg version="1.0" xmlns="http://www.w3.org/2000/svg"
 width="700.000000pt" height="700.000000pt" viewBox="0 0 700.000000 700.000000"
 preserveAspectRatio="xMidYMid meet">
<metadata>
Created by potrace 1.14, written by Peter Selinger 2001-2017
</metadata>
<g transform="translate(0.000000,700.000000) scale(0.100000,-0.100000)"
fill="#000000" stroke="none">
<path d="M415 6070 c-303 -5 -322 -9 -377 -64 -32 -33 -41 -69 -33 -127 9 -60
20 -83 120 -254 48 -82 96 -166 107 -185 11 -19 69 -118 128 -220 59 -102 117
-201 127 -220 29 -51 181 -312 192 -330 11 -16 61 -102 199 -340 49 -85 201
-346 337 -580 136 -234 401 -688 588 -1010 187 -322 363 -625 392 -675 127
-217 211 -361 495 -850 566 -974 644 -1105 674 -1141 33 -40 95 -73 139 -74
55 0 121 47 170 122 14 23 503 860 567 973 10 17 96 165 192 330 293 503 465
798 485 835 11 19 74 127 140 240 66 113 273 468 460 790 188 322 350 601 361
620 12 19 34 58 50 85 30 52 165 285 267 460 32 55 152 262 268 460 115 198
218 374 227 390 9 17 73 127 142 245 156 270 162 282 163 351 0 77 -31 122
-103 149 -53 20 -79 20 -3125 23 -1690 1 -3198 0 -3352 -3z m6419 -120 c46
-10 58 -25 50 -60 -9 -40 -39 -95 -249 -455 -109 -187 -205 -351 -212 -365 -8
-14 -23 -40 -34 -59 -11 -19 -130 -224 -265 -455 -134 -232 -249 -428 -254
-436 -5 -8 -32 -55 -61 -105 -29 -49 -114 -196 -189 -325 -279 -479 -388 -666
-408 -700 -11 -19 -181 -312 -377 -650 -197 -338 -369 -635 -383 -660 -13 -25
-30 -52 -36 -60 -6 -8 -16 -24 -22 -35 -6 -11 -125 -216 -264 -455 -139 -239
-261 -448 -270 -465 -239 -420 -327 -555 -360 -555 -32 0 -114 123 -290 435
-9 17 -89 154 -177 305 -89 152 -170 291 -181 310 -11 19 -75 130 -142 245
-127 217 -145 249 -181 313 -12 20 -25 42 -29 47 -4 6 -19 30 -32 55 -14 25
-96 167 -183 315 -86 149 -169 290 -183 315 -14 25 -53 92 -87 150 -34 58
-201 344 -370 635 -169 292 -336 577 -370 635 -34 58 -65 112 -69 120 -4 8
-12 24 -19 35 -20 32 -93 157 -115 195 -11 19 -131 226 -267 460 -137 234
-257 441 -268 460 -10 19 -23 40 -27 45 -4 6 -19 30 -32 55 -14 25 -56 97 -93
160 -37 63 -77 133 -90 155 -12 22 -52 92 -90 155 -94 160 -107 196 -77 223 9
8 28 17 42 20 49 9 6625 6 6664 -3z"/>
<path d="M3133 5517 l-363 -242 0 -146 0 -147 122 -113 c66 -63 155 -145 197
-184 41 -38 112 -104 156 -145 44 -41 85 -79 91 -85 6 -5 62 -57 124 -115 62
-58 121 -113 132 -122 11 -9 52 -47 92 -85 39 -37 121 -113 180 -168 60 -55
117 -109 127 -119 18 -19 12 -23 -236 -189 l-255 -170 -352 235 c-194 129
-359 238 -365 242 -10 6 -13 -24 -13 -137 l0 -144 250 -167 c138 -92 250 -171
250 -175 0 -4 -112 -83 -250 -174 l-250 -167 0 -650 0 -650 120 0 c89 0 120 3
121 13 0 6 1 116 1 243 l0 230 411 240 c226 131 442 258 481 281 39 24 74 43
78 43 4 0 7 -183 7 -407 0 -225 0 -461 0 -525 l1 -118 120 0 120 0 0 1138 0
1138 -52 49 c-29 27 -105 96 -167 154 -63 58 -122 113 -131 121 -9 8 -72 67
-140 130 -68 63 -131 122 -140 130 -9 8 -72 67 -140 130 -69 63 -134 124 -145
135 -30 28 -231 215 -283 262 l-43 40 256 171 257 171 364 -243 364 -244 0
147 0 146 -365 243 c-200 133 -365 242 -367 241 -2 0 -166 -109 -365 -242z
m854 -2233 l-2 -237 -460 -269 c-253 -148 -472 -275 -486 -283 l-27 -14 0 179
0 179 29 18 c16 10 104 71 196 136 269 190 748 526 750 526 1 1 1 -105 0 -235z"/>
</g>
</svg>
